<svg width="900" height="640" xmlns="http://www.w3.org/2000/svg" font-family="Georgia, serif">

  <!-- PALETTE matching EDA charts exactly:
       #000000  black       — primary bars, headings, active tab, buttons
       #36454F  slate       — secondary bars, dashed lines, axis text, labels  
       #D8D0C4  warm grey   — grid lines, borders, light fills, third category
       #F5F5F5  off-white   — background fills (matches Data Curation alt rows)
       #FFFFFF  white       — canvas, card backgrounds, header text
  -->

  <rect width="900" height="640" fill="#FFFFFF" rx="0"/>
  <rect x="8" y="8" width="884" height="624" fill="#F5F5F5" rx="6" stroke="#D8D0C4" stroke-width="1"/>

  <!-- Title bar — black matching EDA chart titles -->
  <rect x="8" y="8" width="884" height="44" fill="#000000" rx="6 6 0 0"/>
  <text x="450" y="34" text-anchor="middle" font-size="13" font-weight="bold" fill="#FFFFFF" letter-spacing="0.3">Supply Chain Risk &amp; Margin Protection — Prestige Beauty Dashboard</text>

  <!-- KPI label -->
  <text x="22" y="66" font-size="9" font-weight="bold" fill="#36454F" letter-spacing="0.8">KPI SCORECARDS</text>

  <!-- KPI cards — matching EDA chart card style -->
  <rect x="16" y="72" width="200" height="60" fill="#FFFFFF" rx="3" stroke="#D8D0C4" stroke-width="0.5"/>
  <rect x="16" y="72" width="4" height="60" fill="#000000" rx="3 0 0 3"/>
  <text x="116" y="92" text-anchor="middle" font-size="9" fill="#36454F">Avg Sephora Rating</text>
  <text x="116" y="120" text-anchor="middle" font-size="24" font-weight="bold" fill="#000000">4.19 ★</text>

  <rect x="226" y="72" width="200" height="60" fill="#FFFFFF" rx="3" stroke="#D8D0C4" stroke-width="0.5"/>
  <rect x="226" y="72" width="4" height="60" fill="#36454F" rx="3 0 0 3"/>
  <text x="326" y="92" text-anchor="middle" font-size="9" fill="#36454F">Defect Rate</text>
  <text x="326" y="120" text-anchor="middle" font-size="24" font-weight="bold" fill="#000000">2.28%</text>

  <rect x="436" y="72" width="200" height="60" fill="#FFFFFF" rx="3" stroke="#D8D0C4" stroke-width="0.5"/>
  <rect x="436" y="72" width="4" height="60" fill="#000000" rx="3 0 0 3"/>
  <text x="536" y="92" text-anchor="middle" font-size="9" fill="#36454F">Avg Lead Time</text>
  <text x="536" y="120" text-anchor="middle" font-size="24" font-weight="bold" fill="#000000">16.5 days</text>

  <rect x="646" y="72" width="246" height="60" fill="#FFFFFF" rx="3" stroke="#D8D0C4" stroke-width="0.5"/>
  <rect x="646" y="72" width="4" height="60" fill="#36454F" rx="3 0 0 3"/>
  <text x="769" y="92" text-anchor="middle" font-size="9" fill="#36454F">Tariff-Adj COGS Inflation</text>
  <text x="769" y="120" text-anchor="middle" font-size="24" font-weight="bold" fill="#000000">+14.2%</text>

  <!-- Tab navigation — matching EDA document header style -->
  <rect x="16" y="144" width="274" height="26" fill="#000000" rx="4 4 0 0"/>
  <text x="153" y="161" text-anchor="middle" font-size="10" font-weight="bold" fill="#FFFFFF">Tab 1: Executive S&amp;OP Risk Matrix</text>
  <rect x="296" y="144" width="274" height="26" fill="#F5F5F5" rx="4 4 0 0" stroke="#D8D0C4" stroke-width="0.5"/>
  <text x="433" y="161" text-anchor="middle" font-size="10" fill="#36454F">Tab 2: Margin Compression &amp; Simulation</text>
  <rect x="576" y="144" width="316" height="26" fill="#F5F5F5" rx="4 4 0 0" stroke="#D8D0C4" stroke-width="0.5"/>
  <text x="734" y="161" text-anchor="middle" font-size="10" fill="#36454F">Tab 3: Omnichannel Inventory &amp; WMS</text>

  <!-- Tab content area -->
  <rect x="16" y="170" width="876" height="438" fill="#FFFFFF" rx="0 0 6 6" stroke="#D8D0C4" stroke-width="0.5"/>

  <!-- Tariff slider -->
  <rect x="24" y="178" width="860" height="30" fill="#F5F5F5" rx="3" stroke="#D8D0C4" stroke-width="0.5"/>
  <text x="36" y="190" font-size="8" font-weight="bold" fill="#000000" letter-spacing="0.5">GLOBAL TARIFF SENSITIVITY SLIDER</text>
  <rect x="36" y="194" width="580" height="6" fill="#D8D0C4" rx="3"/>
  <rect x="36" y="194" width="200" height="6" fill="#000000" rx="3"/>
  <circle cx="236" cy="197" r="6" fill="#000000"/>
  <text x="248" y="201" font-size="7" fill="#000000" font-weight="bold">15%</text>
  <text x="36" y="203" font-size="6" fill="#36454F">0%</text>
  <text x="610" y="203" font-size="6" fill="#36454F">40%</text>
  <rect x="706" y="180" width="162" height="20" fill="#000000" rx="3"/>
  <text x="787" y="194" text-anchor="middle" font-size="9" font-weight="bold" fill="#FFFFFF">Apply Scenario ↻</text>

  <!-- LEFT CHART: Defect Rate bars — matching EDA Figure 2 colors -->
  <rect x="24" y="216" width="408" height="185" fill="#FFFFFF" rx="3" stroke="#D8D0C4" stroke-width="0.5"/>
  <text x="228" y="234" text-anchor="middle" font-size="10" font-weight="bold" fill="#000000">Defect Rate by Product Type</text>

  <line x1="72" y1="244" x2="72" y2="375" stroke="#D8D0C4" stroke-width="0.8"/>
  <line x1="72" y1="375" x2="400" y2="375" stroke="#D8D0C4" stroke-width="0.8"/>
  <line x1="70" y1="262" x2="400" y2="262" stroke="#F0EEEC" stroke-width="0.5" stroke-dasharray="3,3"/>
  <line x1="70" y1="297" x2="400" y2="297" stroke="#F0EEEC" stroke-width="0.5" stroke-dasharray="3,3"/>
  <line x1="70" y1="332" x2="400" y2="332" stroke="#F0EEEC" stroke-width="0.5" stroke-dasharray="3,3"/>
  <text x="66" y="266" text-anchor="end" font-size="7" fill="#36454F">5%</text>
  <text x="66" y="301" text-anchor="end" font-size="7" fill="#36454F">3%</text>
  <text x="66" y="336" text-anchor="end" font-size="7" fill="#36454F">1%</text>

  <!-- Haircare — black (highest, matching EDA chart1 first bar) -->
  <rect x="102" y="257" width="72" height="118" fill="#000000" rx="2 2 0 0"/>
  <text x="138" y="252" text-anchor="middle" font-size="9" font-weight="bold" fill="#000000">2.48%</text>
  <text x="138" y="388" text-anchor="middle" font-size="9" fill="#36454F">Haircare</text>

  <!-- Skincare — slate -->
  <rect x="214" y="270" width="72" height="105" fill="#36454F" rx="2 2 0 0"/>
  <text x="250" y="265" text-anchor="middle" font-size="9" font-weight="bold" fill="#36454F">2.33%</text>
  <text x="250" y="388" text-anchor="middle" font-size="9" fill="#36454F">Skincare</text>

  <!-- Cosmetics — warm grey (lowest) -->
  <rect x="326" y="307" width="72" height="68" fill="#D8D0C4" rx="2 2 0 0"/>
  <text x="362" y="302" text-anchor="middle" font-size="9" font-weight="bold" fill="#36454F">1.92%</text>
  <text x="362" y="388" text-anchor="middle" font-size="9" fill="#36454F">Cosmetics</text>

  <!-- Bar legend -->
  <rect x="88" y="395" width="10" height="8" fill="#000000" rx="1"/>
  <text x="101" y="402" font-size="7" fill="#36454F">Haircare</text>
  <rect x="155" y="395" width="10" height="8" fill="#36454F" rx="1"/>
  <text x="168" y="402" font-size="7" fill="#36454F">Skincare</text>
  <rect x="222" y="395" width="10" height="8" fill="#D8D0C4" rx="1" stroke="#36454F" stroke-width="0.5"/>
  <text x="235" y="402" font-size="7" fill="#36454F">Cosmetics</text>

  <!-- RIGHT CHART: Lead Time Variability — matching EDA Figure 1 style -->
  <rect x="444" y="216" width="448" height="185" fill="#FFFFFF" rx="3" stroke="#D8D0C4" stroke-width="0.5"/>
  <text x="668" y="234" text-anchor="middle" font-size="10" font-weight="bold" fill="#000000">Lead Time Variability by Supplier</text>

  <line x1="490" y1="244" x2="490" y2="375" stroke="#D8D0C4" stroke-width="0.8"/>
  <line x1="490" y1="375" x2="876" y2="375" stroke="#D8D0C4" stroke-width="0.8"/>
  <line x1="488" y1="262" x2="876" y2="262" stroke="#F0EEEC" stroke-width="0.5" stroke-dasharray="3,3"/>
  <line x1="488" y1="297" x2="876" y2="297" stroke="#F0EEEC" stroke-width="0.5" stroke-dasharray="3,3"/>
  <line x1="488" y1="332" x2="876" y2="332" stroke="#F0EEEC" stroke-width="0.5" stroke-dasharray="3,3"/>
  <text x="484" y="266" text-anchor="end" font-size="7" fill="#36454F">30d</text>
  <text x="484" y="301" text-anchor="end" font-size="7" fill="#36454F">20d</text>
  <text x="484" y="336" text-anchor="end" font-size="7" fill="#36454F">10d</text>
  <text x="520" y="385" text-anchor="middle" font-size="7" fill="#36454F">Sup1</text>
  <text x="578" y="385" text-anchor="middle" font-size="7" fill="#36454F">Sup2</text>
  <text x="636" y="385" text-anchor="middle" font-size="7" fill="#36454F">Sup3</text>
  <text x="694" y="385" text-anchor="middle" font-size="7" fill="#36454F">Sup4</text>
  <text x="752" y="385" text-anchor="middle" font-size="7" fill="#36454F">Sup5</text>
  <text x="810" y="385" text-anchor="middle" font-size="7" fill="#36454F">Sup6</text>
  <text x="856" y="385" text-anchor="middle" font-size="7" fill="#36454F">Sup7</text>

  <!-- Supplier LT — solid black (matching EDA solid lines) -->
  <polyline points="520,298 578,268 636,315 694,256 752,280 810,265 856,275" fill="none" stroke="#000000" stroke-width="2.5"/>
  <circle cx="520" cy="298" r="4" fill="#000000"/>
  <circle cx="578" cy="268" r="4" fill="#000000"/>
  <circle cx="636" cy="315" r="4" fill="#000000"/>
  <circle cx="694" cy="256" r="4" fill="#000000"/>
  <circle cx="752" cy="280" r="4" fill="#000000"/>
  <circle cx="810" cy="265" r="4" fill="#000000"/>
  <circle cx="856" cy="275" r="4" fill="#000000"/>

  <!-- Delivery LT — dashed slate (matching EDA dashed lines) -->
  <polyline points="520,310 578,284 636,328 694,272 752,296 810,279 856,288" fill="none" stroke="#36454F" stroke-width="2" stroke-dasharray="6,3"/>
  <circle cx="520" cy="310" r="3" fill="#36454F"/>
  <circle cx="578" cy="284" r="3" fill="#36454F"/>
  <circle cx="636" cy="328" r="3" fill="#36454F"/>
  <circle cx="694" cy="272" r="3" fill="#36454F"/>
  <circle cx="752" cy="296" r="3" fill="#36454F"/>
  <circle cx="810" cy="279" r="3" fill="#36454F"/>
  <circle cx="856" cy="288" r="3" fill="#36454F"/>

  <line x1="698" y1="248" x2="716" y2="248" stroke="#000000" stroke-width="2.5"/>
  <text x="720" y="252" font-size="7" fill="#000000">Supplier LT</text>
  <line x1="698" y1="260" x2="716" y2="260" stroke="#36454F" stroke-width="2" stroke-dasharray="4,2"/>
  <text x="720" y="264" font-size="7" fill="#36454F">Delivery LT</text>

  <!-- BOTTOM LEFT: Filters panel -->
  <rect x="24" y="410" width="180" height="190" fill="#FFFFFF" rx="3" stroke="#D8D0C4" stroke-width="0.5"/>
  <rect x="24" y="410" width="180" height="26" fill="#000000" rx="3 3 0 0"/>
  <text x="114" y="427" text-anchor="middle" font-size="9" font-weight="bold" fill="#FFFFFF" letter-spacing="0.5">FILTERS</text>
  <rect x="36" y="444" width="156" height="20" fill="#F5F5F5" rx="2" stroke="#D8D0C4" stroke-width="0.5"/>
  <text x="114" y="457" text-anchor="middle" font-size="8" fill="#000000">Product Type ▾</text>
  <rect x="36" y="470" width="156" height="20" fill="#F5F5F5" rx="2" stroke="#D8D0C4" stroke-width="0.5"/>
  <text x="114" y="483" text-anchor="middle" font-size="8" fill="#000000">Supplier ▾</text>
  <rect x="36" y="496" width="156" height="20" fill="#F5F5F5" rx="2" stroke="#D8D0C4" stroke-width="0.5"/>
  <text x="114" y="509" text-anchor="middle" font-size="8" fill="#000000">Transport Mode ▾</text>
  <rect x="36" y="522" width="156" height="20" fill="#F5F5F5" rx="2" stroke="#D8D0C4" stroke-width="0.5"/>
  <text x="114" y="535" text-anchor="middle" font-size="8" fill="#000000">Tariff Tier ▾</text>
  <rect x="36" y="552" width="156" height="22" fill="#000000" rx="2"/>
  <text x="114" y="566" text-anchor="middle" font-size="8" font-weight="bold" fill="#FFFFFF">Apply Filters</text>
  <rect x="36" y="580" width="156" height="16" fill="#F5F5F5" rx="2" stroke="#D8D0C4" stroke-width="0.5"/>
  <text x="114" y="591" text-anchor="middle" font-size="7" fill="#36454F">Reset All</text>

  <!-- BOTTOM RIGHT: Scatter — Cost vs Revenue -->
  <rect x="214" y="410" width="678" height="190" fill="#FFFFFF" rx="3" stroke="#D8D0C4" stroke-width="0.5"/>
  <text x="553" y="428" text-anchor="middle" font-size="10" font-weight="bold" fill="#000000">Cost vs. Revenue by SKU — Tariff Scenario Overlay</text>

  <line x1="260" y1="436" x2="260" y2="572" stroke="#D8D0C4" stroke-width="0.8"/>
  <line x1="260" y1="572" x2="876" y2="572" stroke="#D8D0C4" stroke-width="0.8"/>
  <line x1="258" y1="472" x2="876" y2="472" stroke="#F0EEEC" stroke-width="0.5" stroke-dasharray="3,3"/>
  <line x1="258" y1="512" x2="876" y2="512" stroke="#F0EEEC" stroke-width="0.5" stroke-dasharray="3,3"/>
  <line x1="400" y1="436" x2="400" y2="572" stroke="#F0EEEC" stroke-width="0.5" stroke-dasharray="3,3"/>
  <line x1="568" y1="436" x2="568" y2="572" stroke="#F0EEEC" stroke-width="0.5" stroke-dasharray="3,3"/>
  <line x1="730" y1="436" x2="730" y2="572" stroke="#F0EEEC" stroke-width="0.5" stroke-dasharray="3,3"/>
  <text x="255" y="440" text-anchor="end" font-size="7" fill="#36454F">High</text>
  <text x="255" y="574" text-anchor="end" font-size="7" fill="#36454F">Low</text>
  <text x="265" y="584" font-size="7" fill="#36454F">Cost →</text>
  <text x="830" y="584" font-size="7" fill="#36454F">High</text>

  <!-- Baseline — black circles (matching EDA scatter style) -->
  <circle cx="310" cy="452" r="9" fill="#000000" opacity="0.85"/>
  <circle cx="385" cy="490" r="13" fill="#000000" opacity="0.85"/>
  <circle cx="475" cy="442" r="7" fill="#000000" opacity="0.85"/>
  <circle cx="555" cy="472" r="11" fill="#000000" opacity="0.85"/>
  <circle cx="645" cy="455" r="8" fill="#000000" opacity="0.85"/>
  <circle cx="718" cy="480" r="12" fill="#000000" opacity="0.85"/>
  <circle cx="798" cy="462" r="7" fill="#000000" opacity="0.85"/>
  <circle cx="843" cy="494" r="9" fill="#000000" opacity="0.85"/>

  <!-- Tariff-adjusted — slate diamonds -->
  <polygon points="288,444 297,435 306,444 297,453" fill="#36454F" stroke="#D8D0C4" stroke-width="1"/>
  <polygon points="360,482 370,472 380,482 370,492" fill="#36454F" stroke="#D8D0C4" stroke-width="1"/>
  <polygon points="452,438 460,430 468,438 460,446" fill="#36454F" stroke="#D8D0C4" stroke-width="1"/>
  <polygon points="530,466 538,458 546,466 538,474" fill="#36454F" stroke="#D8D0C4" stroke-width="1"/>
  <polygon points="620,451 628,443 636,451 628,459" fill="#36454F" stroke="#D8D0C4" stroke-width="1"/>
  <polygon points="694,476 702,468 710,476 702,484" fill="#36454F" stroke="#D8D0C4" stroke-width="1"/>
  <polygon points="796,462 804,454 812,462 804,470" fill="#D8D0C4" stroke="#36454F" stroke-width="1"/>
  <polygon points="841,494 849,486 857,494 849,502" fill="#D8D0C4" stroke="#36454F" stroke-width="1"/>

  <!-- Legend -->
  <circle cx="498" cy="592" r="6" fill="#000000"/>
  <text x="508" y="596" font-size="7" fill="#000000">Baseline (no tariff)</text>
  <polygon points="553,592 559,586 565,592 559,598" fill="#36454F" stroke="#D8D0C4" stroke-width="1"/>
  <text x="570" y="596" font-size="7" fill="#36454F">Tariff-adjusted</text>
  <text x="660" y="596" font-size="7" fill="#36454F">Bubble size = Revenue volume</text>

  <!-- Caption -->
  <text x="450" y="618" text-anchor="middle" font-size="8" fill="#36454F">Tableau Public  —  Filters: Product Type | Supplier | Transport Mode | Tariff Tier   |   Tab 2: Waterfall margin charts + dual-source split sim   |   Tab 3: Review velocity vs. stock overlay + ROP/Safety Stock export</text>

</svg>
